<svg width="14" height="14" viewBox="0 0 14 14" fill="none" xmlns="http://www.w3.org/2000/svg">
<path d="M1.75 12.8334H12.25" stroke="#101010" stroke-width="1.5" stroke-linecap="round" stroke-linejoin="round"/>
<path d="M3.26665 4.88831H2.33333C2.0125 4.88831 1.75 5.15081 1.75 5.47164V10.5C1.75 10.8208 2.0125 11.0833 2.33333 11.0833H3.26665C3.58749 11.0833 3.84999 10.8208 3.84999 10.5V5.47164C3.84999 5.15081 3.58749 4.88831 3.26665 4.88831Z" stroke="#101010" stroke-width="1.5" stroke-linecap="round" stroke-linejoin="round"/>
<path d="M7.46666 3.02747H6.53335C6.21251 3.02747 5.95001 3.28997 5.95001 3.6108V10.5C5.95001 10.8208 6.21251 11.0833 6.53335 11.0833H7.46666C7.7875 11.0833 8.05 10.8208 8.05 10.5V3.6108C8.05 3.28997 7.7875 3.02747 7.46666 3.02747Z" stroke="#101010" stroke-width="1.5" stroke-linecap="round" stroke-linejoin="round"/>
<path d="M11.6667 1.16663H10.7334C10.4125 1.16663 10.15 1.42913 10.15 1.74996V10.5C10.15 10.8208 10.4125 11.0833 10.7334 11.0833H11.6667C11.9875 11.0833 12.25 10.8208 12.25 10.5V1.74996C12.25 1.42913 11.9875 1.16663 11.6667 1.16663Z" stroke="#101010" stroke-width="1.5" stroke-linecap="round" stroke-linejoin="round"/>
</svg>
