<svg width="23" height="17" viewBox="0 0 23 17" fill="none" xmlns="http://www.w3.org/2000/svg">
<g clip-path="url(#clip0_2_6573)">
<rect x="0.400024" y="0.399902" width="22.4" height="16" rx="3" fill="#1A47B8"/>
<g opacity="0.5">
<path fill-rule="evenodd" clip-rule="evenodd" d="M4.66669 12.6666L5.73336 12.1332L6.26669 11.0666L6.80002 12.1332L7.86669 12.6666L6.80002 13.1999L6.26669 14.2666L5.73336 13.1999L4.66669 12.6666ZM15.3334 3.5999V4.66657H16.4V3.5999H15.3334ZM18.5334 4.66657V5.73324H19.6V4.66657H18.5334ZM14.2667 6.7999V7.86657H15.3334V6.7999H14.2667ZM17.4667 7.86657V8.93324H18.5334V7.86657H17.4667ZM16.4 11.0666V12.1332H17.4667V11.0666H16.4Z" fill="white"/>
</g>
<path fill-rule="evenodd" clip-rule="evenodd" d="M5.73334 5.73322H2.53334V4.66655H5.73334V2.53322H6.80001V4.66655H10V5.73322H6.80001V7.86655H5.73334V5.73322ZM8.40001 6.79989V7.86655H10V6.79989H8.40001ZM8.40001 2.53322V3.59989H10V2.53322H8.40001ZM2.53334 6.79989V7.86655H4.13334V6.79989H2.53334ZM2.53334 2.53322V3.59989H4.13334V2.53322H2.53334Z" fill="#F93939"/>
</g>
<defs>
<clipPath id="clip0_2_6573">
<rect x="0.400024" y="0.399902" width="22.4" height="16" rx="3" fill="white"/>
</clipPath>
</defs>
</svg>
