<svg width="14" height="14" viewBox="0 0 14 14" fill="none" xmlns="http://www.w3.org/2000/svg">
<path d="M2.43242 8.92497L5.07492 11.5675C6.15992 12.6525 7.92158 12.6525 9.01242 11.5675L11.5733 9.00663C12.6583 7.92163 12.6583 6.15997 11.5733 5.06913L8.92492 2.43247C8.37075 1.8783 7.60658 1.5808 6.82492 1.62163L3.90825 1.76163C2.74158 1.81413 1.81408 2.74163 1.75575 3.90247L1.61575 6.81913C1.58075 7.60663 1.87825 8.3708 2.43242 8.92497Z" stroke="#344054" stroke-width="1.5" stroke-linecap="round" stroke-linejoin="round"/>
<path d="M5.54159 7.00004C6.347 7.00004 6.99992 6.34712 6.99992 5.54171C6.99992 4.73629 6.347 4.08337 5.54159 4.08337C4.73617 4.08337 4.08325 4.73629 4.08325 5.54171C4.08325 6.34712 4.73617 7.00004 5.54159 7.00004Z" stroke="#344054" stroke-width="1.5" stroke-linecap="round"/>
</svg>
