<svg width="23" height="17" viewBox="0 0 23 17" fill="none" xmlns="http://www.w3.org/2000/svg">
<g clip-path="url(#clip0_2_6593)">
<rect x="0.400024" y="0.399902" width="22.4" height="16" rx="3" fill="white"/>
<path d="M11.1059 12.0175H10.6941L10.7971 10.3705C10.7913 10.2838 10.7496 10.261 10.5912 10.2675L8.94414 10.4734C8.94414 10.4734 9.25297 10.0617 9.25297 9.85579C9.25297 9.6499 7.40002 8.31167 7.40002 8.31167C7.40002 8.31167 7.81179 8.20873 7.91473 8.10578C8.01767 8.00284 7.50297 6.87049 7.50297 6.87049C7.50297 6.87049 8.54908 7.28226 8.63532 7.17931C8.72156 7.07637 8.8412 6.66461 8.8412 6.66461C8.8412 6.66461 9.66473 7.59108 9.87061 7.59108C10.0765 7.59108 9.45885 5.32637 9.45885 5.32637C9.45885 5.32637 9.97355 5.73814 10.1794 5.73814C10.3853 5.73814 10.9 4.3999 10.9 4.3999C10.9 4.3999 11.4147 5.73814 11.5177 5.73814C11.6206 5.73814 12.3412 5.32637 12.3412 5.32637C12.3412 5.32637 11.8265 7.48814 11.9294 7.59108C12.0324 7.69402 12.9588 6.66461 12.9588 6.66461C12.9588 6.66461 13.0618 7.07637 13.1647 7.17931C13.2677 7.28226 14.2971 6.87049 14.2971 6.87049C14.2971 6.87049 13.7824 8.00284 13.8853 8.10578C13.9883 8.20873 14.4 8.31167 14.4 8.31167C14.4 8.31167 12.5471 9.6499 12.5471 9.85579C12.5471 10.0617 12.753 10.4734 12.753 10.4734L11.2088 10.2675C11.0847 10.232 11.0417 10.259 11.003 10.3705L11.1059 12.0175Z" fill="#F93939"/>
<path d="M16.4 0.399902H21.4V15.3999H16.4V0.399902Z" fill="#F93939"/>
<path d="M0.400024 0.399902H5.40002V15.3999H0.400024V0.399902Z" fill="#F93939"/>
</g>
<defs>
<clipPath id="clip0_2_6593">
<rect x="0.400024" y="0.399902" width="22.4" height="16" rx="3" fill="white"/>
</clipPath>
</defs>
</svg>
