<svg width="14" height="14" viewBox="0 0 14 14" fill="none" xmlns="http://www.w3.org/2000/svg">
<path d="M5.25002 12.8333H8.75002C11.6667 12.8333 12.8334 11.6666 12.8334 8.74996V5.24996C12.8334 2.33329 11.6667 1.16663 8.75002 1.16663H5.25002C2.33335 1.16663 1.16669 2.33329 1.16669 5.24996V8.74996C1.16669 11.6666 2.33335 12.8333 5.25002 12.8333Z" stroke="#344054" stroke-width="1.5" stroke-linecap="round" stroke-linejoin="round"/>
<path d="M9.08252 10.7917V8.51672" stroke="#344054" stroke-width="1.5" stroke-miterlimit="10" stroke-linecap="round" stroke-linejoin="round"/>
<path d="M9.08252 4.34587V3.20837" stroke="#344054" stroke-width="1.5" stroke-miterlimit="10" stroke-linecap="round" stroke-linejoin="round"/>
<path d="M9.08252 7.37916C9.92016 7.37916 10.5992 6.70012 10.5992 5.86249C10.5992 5.02486 9.92016 4.34583 9.08252 4.34583C8.24489 4.34583 7.56586 5.02486 7.56586 5.86249C7.56586 6.70012 8.24489 7.37916 9.08252 7.37916Z" stroke="#344054" stroke-width="1.5" stroke-miterlimit="10" stroke-linecap="round" stroke-linejoin="round"/>
<path d="M4.91748 10.7917V9.65417" stroke="#344054" stroke-width="1.5" stroke-miterlimit="10" stroke-linecap="round" stroke-linejoin="round"/>
<path d="M4.91748 5.48337V3.20837" stroke="#344054" stroke-width="1.5" stroke-miterlimit="10" stroke-linecap="round" stroke-linejoin="round"/>
<path d="M4.91748 9.65418C5.75512 9.65418 6.43415 8.97515 6.43415 8.13752C6.43415 7.29988 5.75512 6.62085 4.91748 6.62085C4.07985 6.62085 3.40082 7.29988 3.40082 8.13752C3.40082 8.97515 4.07985 9.65418 4.91748 9.65418Z" stroke="#344054" stroke-width="1.5" stroke-miterlimit="10" stroke-linecap="round" stroke-linejoin="round"/>
</svg>
