<svg width="24" height="24" viewBox="0 0 24 24" fill="none" xmlns="http://www.w3.org/2000/svg">
<path d="M7.33333 10.6666C6.6 10.6666 6 11.2666 6 12C6 12.7333 6.6 13.3333 7.33333 13.3333C8.06667 13.3333 8.66667 12.7333 8.66667 12C8.66667 11.2666 8.06667 10.6666 7.33333 10.6666Z" fill="#344054"/>
<path d="M16.6666 10.6666C15.9333 10.6666 15.3333 11.2666 15.3333 12C15.3333 12.7333 15.9333 13.3333 16.6666 13.3333C17.4 13.3333 18 12.7333 18 12C18 11.2666 17.4 10.6666 16.6666 10.6666Z" fill="#344054"/>
<path d="M12 10.6666C11.2667 10.6666 10.6667 11.2666 10.6667 12C10.6667 12.7333 11.2667 13.3333 12 13.3333C12.7334 13.3333 13.3334 12.7333 13.3334 12C13.3334 11.2666 12.7334 10.6666 12 10.6666Z" fill="#344054"/>
</svg>
