<svg width="17" height="17" viewBox="0 0 17 17" fill="none" xmlns="http://www.w3.org/2000/svg">
<g clip-path="url(#clip0_2_6249)">
<path d="M16.4 8.40002C16.4 3.98174 12.8183 0.400024 8.40002 0.400024C3.98174 0.400024 0.400024 3.98174 0.400024 8.40002C0.400024 12.393 3.32549 15.7027 7.15002 16.3028V10.7125H5.11877V8.40002H7.15002V6.63753C7.15002 4.63252 8.3444 3.52502 10.1717 3.52502C11.0467 3.52502 11.9625 3.68127 11.9625 3.68127V5.65002H10.9538C9.96002 5.65002 9.65002 6.26674 9.65002 6.90002V8.40002H11.8688L11.5141 10.7125H9.65002V16.3028C13.4746 15.7027 16.4 12.393 16.4 8.40002Z" fill="#1877F2"/>
<path d="M11.5141 10.7125L11.8688 8.40002H9.65002V6.90002C9.65002 6.26737 9.96002 5.65002 10.9538 5.65002H11.9625V3.68127C11.9625 3.68127 11.0471 3.52502 10.1717 3.52502C8.3444 3.52502 7.15002 4.63252 7.15002 6.63752V8.40002H5.11877V10.7125H7.15002V16.3028C7.97832 16.4324 8.82173 16.4324 9.65002 16.3028V10.7125H11.5141Z" fill="white"/>
</g>
<defs>
<clipPath id="clip0_2_6249">
<rect width="16" height="16" fill="white" transform="translate(0.400024 0.400024)"/>
</clipPath>
</defs>
</svg>
