<svg width="17" height="17" viewBox="0 0 17 17" fill="none" xmlns="http://www.w3.org/2000/svg">
<g clip-path="url(#clip0_2_6285)">
<path d="M16.2442 8.58431C16.2442 8.0405 16.2001 7.49374 16.106 6.95874H8.56018V10.0394H12.8813C12.702 11.033 12.1259 11.9119 11.2822 12.4704V14.4693H13.8602C15.3741 13.076 16.2442 11.0183 16.2442 8.58431Z" fill="#4285F4"/>
<path d="M8.56013 16.4006C10.7178 16.4006 12.5374 15.6922 13.8631 14.4693L11.2851 12.4704C10.5678 12.9584 9.64189 13.2347 8.56307 13.2347C6.47599 13.2347 4.70638 11.8267 4.07143 9.93359H1.41113V11.9942C2.76921 14.6957 5.53533 16.4006 8.56013 16.4006Z" fill="#34A853"/>
<path d="M4.06854 9.93358C3.73343 8.94001 3.73343 7.86413 4.06854 6.87056V4.80994H1.41118C0.276514 7.07045 0.276514 9.73369 1.41118 11.9942L4.06854 9.93358Z" fill="#FBBC04"/>
<path d="M8.56013 3.56646C9.70068 3.54883 10.803 3.978 11.629 4.7658L13.9131 2.48177C12.4668 1.12369 10.5473 0.377047 8.56013 0.400564C5.53533 0.400564 2.76921 2.10551 1.41113 4.8099L4.06849 6.87052C4.7005 4.97451 6.47305 3.56646 8.56013 3.56646Z" fill="#EA4335"/>
</g>
<defs>
<clipPath id="clip0_2_6285">
<rect width="16" height="16" fill="white" transform="translate(0.400024 0.400024)"/>
</clipPath>
</defs>
</svg>
