<svg width="17" height="17" viewBox="0 0 17 17" fill="none" xmlns="http://www.w3.org/2000/svg">
<path d="M8.40003 1.84065C10.5375 1.84065 10.7907 1.85002 11.6313 1.88752C12.4125 1.9219 12.8344 2.05315 13.1157 2.16252C13.4875 2.30627 13.7563 2.48127 14.0344 2.7594C14.3156 3.04065 14.4875 3.30627 14.6313 3.67815C14.7407 3.9594 14.8719 4.3844 14.9063 5.16252C14.9438 6.00627 14.9532 6.2594 14.9532 8.39377C14.9532 10.5313 14.9438 10.7844 14.9063 11.625C14.8719 12.4063 14.7407 12.8282 14.6313 13.1094C14.4875 13.4813 14.3125 13.75 14.0344 14.0282C13.7531 14.3094 13.4875 14.4813 13.1157 14.625C12.8344 14.7344 12.4094 14.8657 11.6313 14.9C10.7875 14.9375 10.5344 14.9469 8.40003 14.9469C6.26253 14.9469 6.0094 14.9375 5.16878 14.9C4.38752 14.8657 3.96565 14.7344 3.6844 14.625C3.31252 14.4813 3.04377 14.3063 2.76565 14.0282C2.4844 13.7469 2.31252 13.4813 2.16877 13.1094C2.0594 12.8282 1.92815 12.4032 1.89377 11.625C1.85627 10.7813 1.8469 10.5281 1.8469 8.39377C1.8469 6.25627 1.85627 6.00315 1.89377 5.16252C1.92815 4.38127 2.0594 3.9594 2.16877 3.67815C2.31252 3.30627 2.48752 3.03752 2.76565 2.7594C3.0469 2.47815 3.31252 2.30627 3.6844 2.16252C3.96565 2.05315 4.39065 1.9219 5.16878 1.88752C6.0094 1.85002 6.26253 1.84065 8.40003 1.84065ZM8.40003 0.400024C6.22815 0.400024 5.95627 0.409399 5.10315 0.446899C4.25315 0.484399 3.66877 0.621899 3.16252 0.818774C2.6344 1.02502 2.18752 1.2969 1.74377 1.74377C1.2969 2.18752 1.02502 2.6344 0.818774 3.1594C0.621899 3.66877 0.484399 4.25002 0.446899 5.10002C0.409399 5.95627 0.400024 6.22815 0.400024 8.40002C0.400024 10.5719 0.409399 10.8438 0.446899 11.6969C0.484399 12.5469 0.621899 13.1313 0.818774 13.6375C1.02502 14.1657 1.2969 14.6125 1.74377 15.0563C2.18752 15.5 2.6344 15.775 3.1594 15.9781C3.66877 16.175 4.25002 16.3125 5.10002 16.35C5.95315 16.3875 6.22502 16.3969 8.3969 16.3969C10.5688 16.3969 10.8407 16.3875 11.6938 16.35C12.5438 16.3125 13.1282 16.175 13.6344 15.9781C14.1594 15.775 14.6063 15.5 15.05 15.0563C15.4938 14.6125 15.7688 14.1657 15.9719 13.6407C16.1688 13.1313 16.3063 12.55 16.3438 11.7C16.3813 10.8469 16.3907 10.575 16.3907 8.40315C16.3907 6.23128 16.3813 5.9594 16.3438 5.10627C16.3063 4.25627 16.1688 3.6719 15.9719 3.16565C15.775 2.6344 15.5032 2.18752 15.0563 1.74377C14.6125 1.30002 14.1657 1.02502 13.6407 0.821899C13.1313 0.625024 12.55 0.487524 11.7 0.450024C10.8438 0.409399 10.5719 0.400024 8.40003 0.400024Z" fill="#000100"/>
<path d="M8.40002 4.29065C6.13127 4.29065 4.29065 6.13127 4.29065 8.40002C4.29065 10.6688 6.13127 12.5094 8.40002 12.5094C10.6688 12.5094 12.5094 10.6688 12.5094 8.40002C12.5094 6.13127 10.6688 4.29065 8.40002 4.29065ZM8.40002 11.0656C6.92815 11.0656 5.7344 9.8719 5.7344 8.40002C5.7344 6.92815 6.92815 5.7344 8.40002 5.7344C9.8719 5.7344 11.0656 6.92815 11.0656 8.40002C11.0656 9.8719 9.8719 11.0656 8.40002 11.0656Z" fill="#000100"/>
<path d="M13.6313 4.1282C13.6313 4.65945 13.2 5.08758 12.6719 5.08758C12.1406 5.08758 11.7125 4.65633 11.7125 4.1282C11.7125 3.59695 12.1438 3.16882 12.6719 3.16882C13.2 3.16882 13.6313 3.60007 13.6313 4.1282Z" fill="#000100"/>
</svg>
