<svg width="49" height="14" viewBox="0 0 49 14" fill="none" xmlns="http://www.w3.org/2000/svg">
<path d="M2.762 11.002H6.902V13H0.242V0.436H2.762V11.002ZM14.3357 13.126C13.1597 13.126 12.0797 12.85 11.0957 12.298C10.1117 11.746 9.33172 10.984 8.75572 10.012C8.17972 9.028 7.89172 7.918 7.89172 6.682C7.89172 5.458 8.17972 4.36 8.75572 3.388C9.33172 2.404 10.1117 1.636 11.0957 1.084C12.0797 0.532 13.1597 0.256 14.3357 0.256C15.5237 0.256 16.6037 0.532 17.5757 1.084C18.5597 1.636 19.3337 2.404 19.8977 3.388C20.4737 4.36 20.7617 5.458 20.7617 6.682C20.7617 7.918 20.4737 9.028 19.8977 10.012C19.3337 10.984 18.5597 11.746 17.5757 12.298C16.5917 12.85 15.5117 13.126 14.3357 13.126ZM14.3357 10.876C15.0917 10.876 15.7577 10.708 16.3337 10.372C16.9097 10.024 17.3597 9.532 17.6837 8.896C18.0077 8.26 18.1697 7.522 18.1697 6.682C18.1697 5.842 18.0077 5.11 17.6837 4.486C17.3597 3.85 16.9097 3.364 16.3337 3.028C15.7577 2.692 15.0917 2.524 14.3357 2.524C13.5797 2.524 12.9077 2.692 12.3197 3.028C11.7437 3.364 11.2937 3.85 10.9697 4.486C10.6457 5.11 10.4837 5.842 10.4837 6.682C10.4837 7.522 10.6457 8.26 10.9697 8.896C11.2937 9.532 11.7437 10.024 12.3197 10.372C12.9077 10.708 13.5797 10.876 14.3357 10.876ZM31.3845 4.216C31.0965 3.688 30.7005 3.286 30.1965 3.01C29.6925 2.734 29.1045 2.596 28.4325 2.596C27.6885 2.596 27.0285 2.764 26.4525 3.1C25.8765 3.436 25.4265 3.916 25.1025 4.54C24.7785 5.164 24.6165 5.884 24.6165 6.7C24.6165 7.54 24.7785 8.272 25.1025 8.896C25.4385 9.52 25.9005 10 26.4885 10.336C27.0765 10.672 27.7605 10.84 28.5405 10.84C29.5005 10.84 30.2865 10.588 30.8985 10.084C31.5105 9.568 31.9125 8.854 32.1045 7.942H27.7845V6.016H34.5885V8.212C34.4205 9.088 34.0605 9.898 33.5085 10.642C32.9565 11.386 32.2425 11.986 31.3665 12.442C30.5025 12.886 29.5305 13.108 28.4505 13.108C27.2385 13.108 26.1405 12.838 25.1565 12.298C24.1845 11.746 23.4165 10.984 22.8525 10.012C22.3005 9.04 22.0245 7.936 22.0245 6.7C22.0245 5.464 22.3005 4.36 22.8525 3.388C23.4165 2.404 24.1845 1.642 25.1565 1.102C26.1405 0.55 27.2325 0.274 28.4325 0.274C29.8485 0.274 31.0785 0.622 32.1225 1.318C33.1665 2.002 33.8865 2.968 34.2825 4.216H31.3845ZM42.2849 13.126C41.1089 13.126 40.0289 12.85 39.0449 12.298C38.0609 11.746 37.2809 10.984 36.7049 10.012C36.1289 9.028 35.8409 7.918 35.8409 6.682C35.8409 5.458 36.1289 4.36 36.7049 3.388C37.2809 2.404 38.0609 1.636 39.0449 1.084C40.0289 0.532 41.1089 0.256 42.2849 0.256C43.4729 0.256 44.5529 0.532 45.5249 1.084C46.5089 1.636 47.2829 2.404 47.8469 3.388C48.4229 4.36 48.7109 5.458 48.7109 6.682C48.7109 7.918 48.4229 9.028 47.8469 10.012C47.2829 10.984 46.5089 11.746 45.5249 12.298C44.5409 12.85 43.4609 13.126 42.2849 13.126ZM42.2849 10.876C43.0409 10.876 43.7069 10.708 44.2829 10.372C44.8589 10.024 45.3089 9.532 45.6329 8.896C45.9569 8.26 46.1189 7.522 46.1189 6.682C46.1189 5.842 45.9569 5.11 45.6329 4.486C45.3089 3.85 44.8589 3.364 44.2829 3.028C43.7069 2.692 43.0409 2.524 42.2849 2.524C41.5289 2.524 40.8569 2.692 40.2689 3.028C39.6929 3.364 39.2429 3.85 38.9189 4.486C38.5949 5.11 38.4329 5.842 38.4329 6.682C38.4329 7.522 38.5949 8.26 38.9189 8.896C39.2429 9.532 39.6929 10.024 40.2689 10.372C40.8569 10.708 41.5289 10.876 42.2849 10.876Z" fill="#F9F9FA"/>
</svg>
