<svg width="29" height="28" viewBox="0 0 29 28" fill="none" xmlns="http://www.w3.org/2000/svg">
<g clip-path="url(#clip0_186_1147)">
<rect x="0.609985" width="28" height="28" rx="14" fill="white"/>
<rect x="-0.390015" y="-1" width="30" height="30" stroke="white" stroke-width="2"/>
<path fill-rule="evenodd" clip-rule="evenodd" d="M28.61 14C28.61 21.732 22.342 28 14.61 28C6.878 28 0.609985 21.732 0.609985 14C0.609985 6.26801 6.878 0 14.61 0C22.342 0 28.61 6.26801 28.61 14ZM6.44332 21C6.34589 21.3619 6.26731 21.7265 6.20759 22.0939C8.32977 24.2964 11.3099 25.6667 14.61 25.6667C17.91 25.6667 20.89 24.2965 23.0122 22.094C22.9526 21.7265 22.8741 21.3618 22.7767 21C22.5098 20.0091 22.1972 19.8492 20.735 19.25C19.7761 18.8571 18.1233 18.4743 15.7767 18.1019V16.7697C17.7894 16.2515 19.2767 14.4244 19.2767 12.25C19.2767 9.67267 17.1873 7.58333 14.61 7.58333C12.0327 7.58333 9.94332 9.67267 9.94332 12.25C9.94332 14.4244 11.4305 16.2515 13.4433 16.7697V18.0977C11.5089 18.3056 9.85612 18.6896 8.48498 19.25C7.02154 19.848 6.70885 20.0137 6.44332 21Z" fill="#202125" fill-opacity="0.2"/>
<g opacity="0.2">
<path d="M4.69418 4.04739C7.44353 1.23423 10.7194 -0.113799 14.5228 0.00751206C18.3248 0.127281 21.6299 1.62369 24.4386 4.49744C27.3036 7.42882 28.6927 10.6767 28.6062 14.2388C28.517 17.8009 27.1879 20.8982 24.6142 23.5315C22.8588 25.3275 20.7671 26.5983 18.3398 27.3472C15.9117 28.0954 13.4694 28.2006 11.012 27.6622C8.55613 27.1222 6.45018 25.9552 4.69473 24.1593C2.06243 21.466 0.699819 18.1605 0.61415 14.2382C0.524369 10.3173 1.8863 6.92044 4.69418 4.04739Z" fill="#C1DB4D"/>
</g>
<mask id="mask0_186_1147" style="mask-type:luminance" maskUnits="userSpaceOnUse" x="0" y="0" width="29" height="28">
<path d="M4.69418 4.04739C7.44353 1.23423 10.7194 -0.113799 14.5228 0.00751206C18.3248 0.127281 21.6299 1.62369 24.4386 4.49744C27.3036 7.42882 28.6927 10.6767 28.6062 14.2388C28.517 17.8009 27.1879 20.8982 24.6142 23.5315C22.8588 25.3275 20.7671 26.5983 18.3398 27.3472C15.9117 28.0954 13.4694 28.2006 11.012 27.6622C8.55613 27.1222 6.45018 25.9552 4.69473 24.1593C2.06243 21.466 0.699819 18.1605 0.61415 14.2382C0.524369 10.3173 1.8863 6.92044 4.69418 4.04739Z" fill="white"/>
</mask>
<g mask="url(#mask0_186_1147)">
<path d="M11.88 20.0559C12.8262 19.2595 11.9476 14.6979 11.9476 14.6979H17.3095C17.3095 14.6979 16.4309 19.2595 17.3771 20.0559C18.3233 20.8524 25.4873 20.78 24.8115 28.4549H4.44564C3.76988 20.78 10.9339 20.8525 11.88 20.0559Z" fill="#723021"/>
<path d="M13.6828 21.2398L14.2779 22.8736L14.4478 22.7899L15.0853 21.1141L15.9778 22.6223L15.5104 23.1251L12.8754 23.0832L13.6828 21.2398Z" fill="#E9EDD6"/>
<path d="M10.4367 20.2732C10.4367 20.2732 11.1947 22.7865 14.6287 22.8064C18.0627 22.7865 18.8207 20.2732 18.8207 20.2732C26.5914 22.0833 24.9263 28.455 24.9263 28.455L14.669 28.5269V28.5274L14.6289 28.5271L14.5886 28.5274V28.5269L4.33135 28.455C4.33135 28.455 2.66608 22.0833 10.4367 20.2732Z" fill="#C1DB4D"/>
<path d="M14.3736 23.5134C18.5366 23.4893 19.4589 20.446 19.461 20.4392C19.2547 20.3805 19.0419 20.3248 18.8206 20.2732C18.8206 20.2732 18.0626 22.7865 14.6286 22.8064C11.1946 22.7865 10.4366 20.2732 10.4366 20.2732C10.0466 20.3641 9.68143 20.4669 9.33752 20.5793C9.57849 21.1773 10.7445 23.4924 14.3736 23.5134Z" fill="#ADC133"/>
<path d="M9.34802 20.1087L12.2805 23.7116L13.6829 21.7006L14.2779 22.8736L13.853 21.1141L10.5381 18.8518L9.34802 20.1087Z" fill="white"/>
<path d="M19.3777 20.0248L16.4454 23.6696L15.0004 21.6169L14.4479 22.7899L14.8729 21.0304L18.1878 18.7681L19.3777 20.0248Z" fill="white"/>
<path d="M20.3986 13.0794C20.1426 14.0378 19.422 14.8879 18.8553 14.7294C18.2887 14.5709 18.0908 13.4641 18.3467 12.5057C18.6027 11.5472 19.2158 11.1 19.7823 11.2585C20.349 11.417 20.6546 12.121 20.3986 13.0794Z" fill="#723021"/>
<path d="M8.85882 13.0794C9.11487 14.0378 9.83545 14.8879 10.4021 14.7294C10.9687 14.5709 11.1667 13.4641 10.9108 12.5057C10.6547 11.5472 10.0416 11.1 9.47509 11.2585C8.9083 11.417 8.60277 12.121 8.85882 13.0794Z" fill="#723021"/>
<path d="M19.3769 11.2723C18.9993 15.0141 17.3959 18.9092 14.593 18.9092C11.7901 18.9092 10.1943 15.246 10.0132 11.489C9.79706 7.00639 11.7901 5.28741 14.593 5.28741C17.3959 5.28741 19.7995 7.08436 19.3769 11.2723Z" fill="#8E3E30"/>
<path d="M18.8308 11.1562C18.678 12.8072 18.2488 16.2572 17.635 16.4355C16.5547 16.7493 17.8283 14.5189 16.1009 14.4949C14.1423 14.4678 12.5531 13.7544 12.4539 15.6434C12.3662 17.3116 10.6817 14.3824 10.4347 11.167C10.2513 11.1766 10.068 11.1854 9.88464 11.1923C9.91781 11.6944 10.1162 14.3412 10.1909 15.5824C10.3497 18.2227 11.3621 19.5023 14.9353 19.5227C18.1356 19.5408 19.5859 18.1089 19.377 11.2722C19.1096 11.194 18.9329 11.2011 18.8308 11.1562ZM15.8483 17.4916C15.3568 17.3985 15.2527 16.6589 15.2527 16.6589L14.399 16.598C14.399 16.598 14.3634 17.4602 13.6844 17.4308C12.7513 17.3901 13.0094 15.2372 13.0094 15.2372C14.0813 15.4606 14.8556 15.1153 14.8556 15.1153C15.9078 15.6028 16.6422 15.3591 16.6422 15.3591C16.7614 16.923 16.3842 17.5933 15.8483 17.4916Z" fill="#2C2429"/>
<path d="M10.7409 7.78595C10.3572 8.51522 10.3754 10.404 10.3983 11.2221L10.3297 11.2922L10.2612 11.4324L9.91845 11.3623C9.75853 10.1702 9.46611 7.61768 9.57577 6.94463C9.71284 6.1033 10.1926 6.45377 10.5353 5.68243C10.8779 4.91108 11.7004 4.42023 12.4542 4.63018C13.0573 4.79814 13.7564 4.93418 14.0305 4.9812C13.9392 4.79421 13.8524 4.42023 14.2362 4.42023C14.6199 4.42023 15.2185 4.56019 15.4698 4.63018C15.5612 4.48993 15.9769 4.29359 16.909 4.63018C18.0741 5.05091 19.1707 5.89238 19.3763 7.15463C19.5408 8.16443 19.4448 10.3335 19.3763 11.2918L19.3077 11.5723L19.1707 11.7125L18.8965 11.1518C19.2392 9.32885 18.7595 6.80402 17.5944 7.15463C16.4293 7.50524 15.3327 7.50546 14.2362 7.50546C13.1396 7.50546 11.2207 6.87436 10.7409 7.78595Z" fill="#2C2429"/>
<path d="M20.2899 12.6717C20.257 12.5511 20.2207 12.4333 20.1793 12.3221C20.1575 12.267 20.1335 12.2138 20.1073 12.1668C20.0813 12.1212 20.0454 12.0816 20.0229 12.0755C20.0052 12.0723 20.003 12.0755 19.9687 12.0987C19.9635 12.1043 19.9484 12.1151 19.951 12.1153C19.9423 12.1254 19.9261 12.1395 19.9235 12.1463C19.9194 12.1543 19.9162 12.1591 19.9102 12.1679L19.8916 12.1984C19.8428 12.2863 19.8088 12.3965 19.7766 12.5072C19.7439 12.6183 19.7176 12.7338 19.6947 12.8508C19.6684 12.9671 19.6457 13.085 19.6254 13.2038L19.5616 13.5611L19.5001 13.9196L19.4562 13.8258C19.4784 13.844 19.4935 13.859 19.5108 13.8767C19.5274 13.8939 19.5431 13.9119 19.5583 13.9307C19.5885 13.9687 19.6162 14.0108 19.637 14.06C19.6573 14.1091 19.6705 14.1696 19.6588 14.2304C19.6462 14.2912 19.611 14.3405 19.5731 14.3736C19.4964 14.441 19.4107 14.4663 19.3279 14.4873C19.2447 14.5078 19.1607 14.5151 19.0776 14.5204C19.156 14.4914 19.2327 14.4584 19.3049 14.4222C19.3407 14.4036 19.3756 14.3834 19.4065 14.3605C19.4381 14.3388 19.4665 14.3138 19.4857 14.287C19.5261 14.2311 19.5191 14.1891 19.488 14.136C19.4714 14.11 19.4487 14.0842 19.4226 14.0605C19.4095 14.0488 19.3956 14.0373 19.3814 14.0265C19.3677 14.0162 19.3507 14.0044 19.3394 13.9981L19.295 13.9734L19.2956 13.9042C19.2965 13.7779 19.2974 13.6542 19.3056 13.5297C19.3149 13.4056 19.3237 13.2811 19.3404 13.1572C19.3577 13.0335 19.3775 12.9097 19.4017 12.7859C19.4295 12.6627 19.4614 12.5399 19.5016 12.4169C19.5424 12.294 19.5953 12.173 19.6753 12.0531L19.7088 12.0085C19.721 11.9929 19.7387 11.9755 19.7541 11.9601C19.7708 11.9434 19.7794 11.9396 19.7926 11.9287C19.8175 11.9083 19.8293 11.9047 19.8484 11.8924C19.8865 11.8736 19.9282 11.8545 19.9826 11.8524C20.0355 11.849 20.0935 11.8671 20.1336 11.897C20.2123 11.9598 20.2374 12.0326 20.2608 12.0974C20.2821 12.1633 20.2925 12.2282 20.2987 12.2925C20.3118 12.4208 20.3072 12.5473 20.2899 12.6717Z" fill="#5E1D12"/>
<path d="M8.9677 12.6717C8.95043 12.5473 8.94563 12.4208 8.95893 12.2929C8.9651 12.2287 8.97551 12.1637 8.99676 12.0978C9.0202 12.033 9.04528 11.9602 9.12396 11.8974C9.16412 11.8675 9.2221 11.8495 9.27501 11.8528C9.32943 11.8549 9.3711 11.874 9.4092 11.8928C9.42826 11.905 9.44018 11.9088 9.46513 11.9291C9.47815 11.9401 9.48692 11.9438 9.50351 11.9605C9.51886 11.9758 9.53654 11.9932 9.54888 12.0089L9.58246 12.0535C9.66237 12.1734 9.71528 12.2946 9.75613 12.4173C9.79629 12.5403 9.82823 12.6632 9.85605 12.7863C9.88018 12.9101 9.90005 13.034 9.91732 13.1576C9.93404 13.2815 9.94268 13.406 9.95214 13.5301C9.96036 13.6547 9.96118 13.7784 9.96214 13.9046L9.96269 13.9739L9.91828 13.9986C9.90704 14.0049 9.89004 14.0165 9.87634 14.0269C9.86208 14.0377 9.84824 14.049 9.83508 14.061C9.80904 14.0847 9.78628 14.1105 9.7697 14.1364C9.73858 14.1894 9.73159 14.2315 9.77203 14.2875C9.79122 14.3142 9.81973 14.3392 9.85125 14.3609C9.8821 14.3839 9.91705 14.4041 9.95282 14.4227C10.0251 14.459 10.1017 14.4918 10.1801 14.5208C10.097 14.5155 10.013 14.5082 9.9298 14.4877C9.84687 14.4667 9.76134 14.4416 9.68458 14.374C9.64688 14.3409 9.61152 14.2917 9.59891 14.2308C9.58726 14.1701 9.60042 14.1095 9.6207 14.0604C9.64167 14.0112 9.66936 13.9691 9.69938 13.9311C9.7146 13.9122 9.73036 13.8944 9.74694 13.8771C9.76421 13.8596 9.77929 13.8446 9.8015 13.8262L9.75763 13.92L9.69596 13.5616L9.63235 13.2042C9.61207 13.0854 9.58931 12.9673 9.563 12.8512C9.54011 12.7344 9.51379 12.6187 9.48116 12.5076C9.44909 12.397 9.4151 12.2867 9.36616 12.1988L9.34752 12.1684C9.34163 12.1595 9.33834 12.1549 9.33423 12.1468C9.33162 12.1399 9.31545 12.1259 9.30668 12.1158C9.30942 12.1155 9.29434 12.1047 9.289 12.0991C9.25486 12.0759 9.25253 12.0727 9.23485 12.0759C9.21223 12.082 9.17632 12.1217 9.15041 12.1672C9.12423 12.2142 9.10025 12.2674 9.07845 12.3225C9.03692 12.4333 9.0006 12.5511 8.9677 12.6717Z" fill="#5E1D12"/>
<path d="M14.3393 11.4397C14.3212 11.5592 14.3008 11.6771 14.2758 11.7933C14.2536 11.9105 14.224 12.0248 14.1991 12.1406C14.1437 12.3705 14.0839 12.598 14.0206 12.824L13.9237 13.1619L13.824 13.4982C13.7939 13.6108 13.7535 13.7216 13.7227 13.8332C13.6918 13.9453 13.6578 14.0568 13.6208 14.1679L13.5365 14.0278C13.6365 14.0606 13.7367 14.0924 13.836 14.1282C13.9353 14.1635 14.0351 14.1969 14.1341 14.2339C14.332 14.3076 14.5298 14.382 14.7246 14.4679C14.5136 14.4453 14.3056 14.4115 14.0976 14.3768C13.9936 14.3597 13.8905 14.3388 13.787 14.32C13.6833 14.3017 13.5806 14.2794 13.4778 14.258L13.3761 14.2369L13.3935 14.1179C13.4108 13.9994 13.4312 13.8811 13.4546 13.7634C13.4742 13.6443 13.5056 13.53 13.5355 13.4145C13.5662 13.2993 13.5925 13.1828 13.6316 13.0706C13.6683 12.9577 13.7031 12.844 13.7414 12.7318L13.8667 12.3988C13.912 12.2892 13.9586 12.1802 14.0068 12.0718C14.1056 11.8561 14.2118 11.6431 14.3393 11.4397Z" fill="#5E1D12"/>
<path d="M16.6302 15.5512C16.6302 15.5512 14.8833 17.2302 13.1885 15.5385L16.6302 15.5512Z" fill="white"/>
<path d="M13.715 10.8922C13.715 10.8922 13.7072 10.8783 13.6902 10.856C13.6737 10.8358 13.6455 10.8094 13.6093 10.7759C13.5362 10.7107 13.4266 10.6257 13.2928 10.5383C13.1601 10.4508 13.0039 10.3584 12.8376 10.2897C12.7548 10.2539 12.6691 10.2267 12.5843 10.2061C12.499 10.1855 12.4141 10.1737 12.3303 10.1747C12.2463 10.1699 12.1638 10.1839 12.0811 10.2008C11.999 10.2198 11.9169 10.2482 11.837 10.2841C11.7572 10.32 11.6789 10.3622 11.6051 10.4085C11.5661 10.4284 11.5326 10.4559 11.4969 10.4787C11.4611 10.5017 11.4266 10.5246 11.3949 10.5497C11.3301 10.5976 11.2666 10.6408 11.2139 10.6845C11.1608 10.7274 11.1094 10.7624 11.071 10.7954C10.9917 10.8589 10.9395 10.8934 10.9395 10.8934C10.9395 10.8934 10.9493 10.833 10.9785 10.7305C10.9922 10.6787 11.0125 10.6173 11.0425 10.55C11.0691 10.4803 11.106 10.4048 11.1527 10.325C11.1988 10.2451 11.2572 10.1619 11.3279 10.0792C11.3989 9.99684 11.4833 9.91479 11.584 9.84257C11.6344 9.80624 11.6869 9.77062 11.7461 9.74215C11.8027 9.70948 11.865 9.68451 11.9294 9.66292C12.0577 9.61888 12.198 9.59532 12.3373 9.59784C12.4764 9.60079 12.6144 9.62407 12.739 9.67021C12.8646 9.71326 12.9793 9.77328 13.0786 9.84313C13.2796 9.98043 13.4251 10.1497 13.5258 10.3064C13.6258 10.4644 13.6826 10.6111 13.7061 10.7195C13.7199 10.772 13.721 10.8185 13.7216 10.8488C13.7198 10.8773 13.7142 10.892 13.715 10.8922Z" fill="#161114"/>
<path d="M18.2207 10.9793C18.2207 10.9793 18.1702 10.9429 18.0821 10.8793C17.9955 10.8168 17.874 10.7295 17.7305 10.6345C17.445 10.4459 17.0654 10.2196 16.7007 10.1922C16.6098 10.1859 16.5189 10.1842 16.429 10.1995C16.3388 10.211 16.2499 10.2367 16.1615 10.2649C16.1175 10.2807 16.0757 10.3015 16.0315 10.3165C15.9889 10.3372 15.9471 10.3574 15.9064 10.377C15.8263 10.4219 15.7452 10.4622 15.6751 10.5101C15.6025 10.5543 15.5341 10.5967 15.4754 10.6385C15.4162 10.6791 15.3608 10.7132 15.3185 10.745C15.2312 10.8063 15.1746 10.839 15.1746 10.839C15.1746 10.839 15.191 10.777 15.2312 10.6728C15.2505 10.6201 15.2768 10.5574 15.3152 10.4904C15.3337 10.4559 15.3534 10.4193 15.3741 10.3805C15.3976 10.3435 15.4243 10.3061 15.4517 10.2658C15.5054 10.1848 15.578 10.1068 15.6573 10.025C15.6994 9.98619 15.7438 9.94748 15.7907 9.90835C15.8402 9.87203 15.8924 9.83696 15.947 9.80218C16.06 9.73921 16.1852 9.67975 16.3238 9.64988C16.4604 9.61187 16.6078 9.60907 16.751 9.61734C16.8944 9.63263 17.033 9.66811 17.1603 9.72014C17.2859 9.774 17.4021 9.83949 17.5023 9.91522C17.7046 10.0646 17.8532 10.2395 17.9604 10.3986C18.0662 10.5596 18.1329 10.7047 18.171 10.8098C18.2094 10.915 18.2207 10.9793 18.2207 10.9793Z" fill="#161114"/>
<path d="M16.4746 12.1732C16.4746 12.565 16.5806 12.8825 16.7115 12.8825C16.8422 12.8825 16.9483 12.5649 16.9483 12.1732C16.9483 11.7813 16.8422 11.4638 16.7115 11.4638C16.5807 11.4638 16.4746 11.7815 16.4746 12.1732Z" fill="#161114"/>
<path d="M12.3416 12.0771C12.3416 12.469 12.4476 12.7865 12.5784 12.7865C12.7092 12.7865 12.8153 12.4688 12.8153 12.0771C12.8153 11.6854 12.7092 11.3676 12.5784 11.3676C12.4476 11.3676 12.3416 11.6853 12.3416 12.0771Z" fill="#161114"/>
</g>
</g>
<rect x="1.10999" y="0.5" width="27" height="27" rx="13.5" stroke="white"/>
<defs>
<clipPath id="clip0_186_1147">
<rect x="0.609985" width="28" height="28" rx="14" fill="white"/>
</clipPath>
</defs>
</svg>
