<svg width="14" height="14" viewBox="0 0 14 14" fill="none" xmlns="http://www.w3.org/2000/svg">
<path d="M5.25002 12.8333H8.75002C11.6667 12.8333 12.8334 11.6666 12.8334 8.74996V5.24996C12.8334 2.33329 11.6667 1.16663 8.75002 1.16663H5.25002C2.33335 1.16663 1.16669 2.33329 1.16669 5.24996V8.74996C1.16669 11.6666 2.33335 12.8333 5.25002 12.8333Z" stroke="#344054" stroke-width="1.5" stroke-linecap="round" stroke-linejoin="round"/>
<path d="M1.16669 7.58335H3.36002C3.80335 7.58335 4.20585 7.83418 4.40419 8.23085L4.92335 9.27501C5.25002 9.91668 5.83335 9.91668 5.97335 9.91668H8.03252C8.47585 9.91668 8.87835 9.66585 9.07669 9.26918L9.59585 8.22502C9.79419 7.82835 10.1967 7.57751 10.64 7.57751H12.8217" stroke="#344054" stroke-width="1.5" stroke-linecap="round" stroke-linejoin="round"/>
</svg>
