<svg width="14" height="14" viewBox="0 0 14 14" fill="none" xmlns="http://www.w3.org/2000/svg">
<path d="M1.84918 4.33997L7.00001 7.32079L12.1158 4.35745" stroke="#344054" stroke-width="1.5" stroke-linecap="round" stroke-linejoin="round"/>
<path d="M7 12.6058V7.31494" stroke="#344054" stroke-width="1.5" stroke-linecap="round" stroke-linejoin="round"/>
<path d="M5.79249 1.44663L2.67749 3.17914C1.97165 3.56998 1.39417 4.54997 1.39417 5.35497V8.65081C1.39417 9.45581 1.97165 10.4358 2.67749 10.8266L5.79249 12.5592C6.45749 12.9267 7.54832 12.9267 8.21332 12.5592L11.3283 10.8266C12.0342 10.4358 12.6117 9.45581 12.6117 8.65081V5.35497C12.6117 4.54997 12.0342 3.56998 11.3283 3.17914L8.21332 1.44663C7.54248 1.07329 6.45749 1.07329 5.79249 1.44663Z" stroke="#344054" stroke-width="1.5" stroke-linecap="round" stroke-linejoin="round"/>
<path d="M9.91669 7.72328V5.58829L4.38086 2.3916" stroke="#344054" stroke-width="1.5" stroke-linecap="round" stroke-linejoin="round"/>
</svg>
