<svg width="14" height="14" viewBox="0 0 14 14" fill="none" xmlns="http://www.w3.org/2000/svg">
<path d="M8.51671 7.33828V8.93078C8.51671 10.2608 7.98587 10.7916 6.65587 10.7916H5.06921C3.74504 10.7916 3.20837 10.2608 3.20837 8.93078V7.33828C3.20837 6.01411 3.73921 5.48328 5.06921 5.48328H6.66171C7.98587 5.48328 8.51671 6.01411 8.51671 7.33828Z" stroke="#344054" stroke-width="1.5" stroke-linecap="round" stroke-linejoin="round"/>
<path d="M10.7917 5.06325V6.65575C10.7917 7.98575 10.2608 8.51659 8.93084 8.51659H8.51667V7.33825C8.51667 6.01409 7.98584 5.48325 6.65584 5.48325H5.48334V5.06325C5.48334 3.73325 6.01417 3.20825 7.34417 3.20825H8.93667C10.2608 3.20825 10.7917 3.73909 10.7917 5.06325Z" stroke="#344054" stroke-width="1.5" stroke-linecap="round" stroke-linejoin="round"/>
<path d="M12.8333 8.75C12.8333 11.0075 11.0075 12.8333 8.75 12.8333L9.3625 11.8125" stroke="#344054" stroke-width="1.5" stroke-linecap="round" stroke-linejoin="round"/>
<path d="M1.16669 5.24996C1.16669 2.99246 2.99252 1.16663 5.25002 1.16663L4.63752 2.18746" stroke="#344054" stroke-width="1.5" stroke-linecap="round" stroke-linejoin="round"/>
</svg>
