<svg width="17" height="16" viewBox="0 0 17 16" fill="none" xmlns="http://www.w3.org/2000/svg">
<path d="M8.16671 14.5C4.40004 14.5 1.33337 11.4333 1.33337 7.66665C1.33337 3.89998 4.40004 0.833313 8.16671 0.833313C11.9334 0.833313 15 3.89998 15 7.66665C15 11.4333 11.9334 14.5 8.16671 14.5ZM8.16671 1.83331C4.94671 1.83331 2.33337 4.45331 2.33337 7.66665C2.33337 10.88 4.94671 13.5 8.16671 13.5C11.3867 13.5 14 10.88 14 7.66665C14 4.45331 11.3867 1.83331 8.16671 1.83331Z" fill="#777F8C"/>
<path d="M15.1666 15.1666C15.04 15.1666 14.9133 15.12 14.8133 15.02L13.48 13.6866C13.2866 13.4933 13.2866 13.1733 13.48 12.98C13.6733 12.7866 13.9933 12.7866 14.1866 12.98L15.52 14.3133C15.7133 14.5066 15.7133 14.8266 15.52 15.02C15.42 15.12 15.2933 15.1666 15.1666 15.1666Z" fill="#777F8C"/>
</svg>
