<svg width="16" height="17" viewBox="0 0 16 17" fill="none" xmlns="http://www.w3.org/2000/svg">
<g clip-path="url(#clip0_1982_6512)">
<path d="M7.25825 2.74412C8.22097 2.74324 9.16233 3.02792 9.96323 3.56214C10.7641 4.09636 11.3886 4.85612 11.7576 5.74531C12.1267 6.6345 12.2237 7.61316 12.0364 8.5575C11.8491 9.50183 11.386 10.3694 10.7055 11.0505C10.0251 11.7315 9.15793 12.1955 8.21377 12.3836C7.26961 12.5718 6.29086 12.4756 5.40133 12.1074C4.5118 11.7392 3.75147 11.1154 3.21652 10.315C2.68156 9.51461 2.39603 8.57351 2.39603 7.61079C2.40186 6.32263 2.91587 5.08884 3.82632 4.17755C4.73678 3.26626 5.9701 2.75113 7.25825 2.74412ZM7.25825 1.83301C6.11551 1.83301 4.99844 2.17187 4.04829 2.80674C3.09814 3.44161 2.35758 4.34397 1.92028 5.39973C1.48297 6.45548 1.36855 7.6172 1.59149 8.73797C1.81443 9.85875 2.36471 10.8883 3.17274 11.6963C3.98078 12.5043 5.01028 13.0546 6.13106 13.2775C7.25184 13.5005 8.41356 13.3861 9.46931 12.9488C10.5251 12.5114 11.4274 11.7709 12.0623 10.8207C12.6972 9.8706 13.036 8.75352 13.036 7.61079C13.036 6.07842 12.4273 4.60882 11.3438 3.52528C10.2602 2.44174 8.79061 1.83301 7.25825 1.83301Z" fill="#7A7A7A"/>
<path d="M15.5551 15.2958L12.2795 11.998L11.6484 12.6247L14.924 15.9225C14.9651 15.9639 15.014 15.9969 15.0679 16.0194C15.1218 16.0419 15.1796 16.0536 15.238 16.0538C15.2964 16.0541 15.3542 16.0428 15.4083 16.0206C15.4623 15.9984 15.5114 15.9659 15.5529 15.9247C15.5943 15.8836 15.6273 15.8347 15.6498 15.7808C15.6723 15.7269 15.684 15.6691 15.6842 15.6107C15.6844 15.5523 15.6732 15.4945 15.651 15.4404C15.6288 15.3864 15.5963 15.3373 15.5551 15.2958Z" fill="#7A7A7A"/>
</g>
<defs>
<clipPath id="clip0_1982_6512">
<rect width="16" height="16" fill="white" transform="translate(0 0.5)"/>
</clipPath>
</defs>
</svg>
