<svg width="16" height="16" viewBox="0 0 16 16" fill="none" xmlns="http://www.w3.org/2000/svg">
<path d="M10 15.1667H6.00004C2.38004 15.1667 0.833374 13.62 0.833374 10V6.00004C0.833374 2.38004 2.38004 0.833374 6.00004 0.833374H10C13.62 0.833374 15.1667 2.38004 15.1667 6.00004V10C15.1667 13.62 13.62 15.1667 10 15.1667ZM6.00004 1.83337C2.92671 1.83337 1.83337 2.92671 1.83337 6.00004V10C1.83337 13.0734 2.92671 14.1667 6.00004 14.1667H10C13.0734 14.1667 14.1667 13.0734 14.1667 10V6.00004C14.1667 2.92671 13.0734 1.83337 10 1.83337H6.00004Z" fill="#777F8C"/>
<path d="M7.05334 10.3866C6.92 10.3866 6.79334 10.3333 6.7 10.2399L4.81333 8.35328C4.62 8.15994 4.62 7.83994 4.81333 7.64661C5.00667 7.45328 5.32667 7.45328 5.52 7.64661L7.05334 9.17994L10.48 5.75328C10.6733 5.55994 10.9933 5.55994 11.1867 5.75328C11.38 5.94661 11.38 6.26661 11.1867 6.45994L7.40667 10.2399C7.31334 10.3333 7.18667 10.3866 7.05334 10.3866Z" fill="#777F8C"/>
</svg>
