<svg width="24" height="24" viewBox="0 0 24 24" fill="none" xmlns="http://www.w3.org/2000/svg">
<g clip-path="url(#clip0_2_6729)">
<rect width="24" height="24" rx="12" fill="#202125" fill-opacity="0.08"/>
<path d="M12.0133 17.6867C10.46 17.6867 8.90666 17.44 7.43333 16.9467C6.87333 16.7533 6.44666 16.36 6.25999 15.8467C6.06666 15.3333 6.13333 14.7667 6.43999 14.26L7.20666 12.9867C7.36666 12.72 7.51333 12.1867 7.51333 11.8733V9.94666C7.51333 7.46666 9.53333 5.44666 12.0133 5.44666C14.4933 5.44666 16.5133 7.46666 16.5133 9.94666V11.8733C16.5133 12.18 16.66 12.72 16.82 12.9933L17.58 14.26C17.8667 14.74 17.92 15.32 17.7267 15.8467C17.5333 16.3733 17.1133 16.7733 16.5867 16.9467C15.12 17.44 13.5667 17.6867 12.0133 17.6867ZM12.0133 6.44666C10.0867 6.44666 8.51333 8.01332 8.51333 9.94666V11.8733C8.51333 12.36 8.31333 13.08 8.06666 13.5L7.29999 14.7733C7.15333 15.02 7.11333 15.28 7.19999 15.5C7.27999 15.7267 7.47999 15.9 7.75333 15.9933C10.54 16.9267 13.4933 16.9267 16.28 15.9933C16.52 15.9133 16.7067 15.7333 16.7933 15.4933C16.88 15.2533 16.86 14.9933 16.7267 14.7733L15.96 13.5C15.7067 13.0667 15.5133 12.3533 15.5133 11.8667V9.94666C15.5133 8.01332 13.9467 6.44666 12.0133 6.44666Z" fill="#C0C4CA"/>
<path d="M13.2507 6.12592L13.2507 6.1259L13.2463 6.12469C13.0353 6.06648 12.8287 6.02201 12.6266 5.99208L12.6266 5.992L12.6175 5.99082C11.9874 5.90927 11.3708 5.95266 10.7865 6.12673C10.9856 5.61886 11.4674 5.28668 12.02 5.28668C12.5737 5.28668 13.0525 5.6128 13.2517 6.12208C13.2523 6.12368 13.2526 6.12516 13.2529 6.12649C13.2524 6.12637 13.2516 6.12619 13.2507 6.12592Z" fill="#C0C4CA" stroke="#C0C4CA"/>
<path d="M12.0133 19.2067C11.3533 19.2067 10.7133 18.94 10.2466 18.4733C9.77997 18.0067 9.51331 17.3667 9.51331 16.7067H10.5133C10.5133 17.1 10.6733 17.4867 10.9533 17.7667C11.2333 18.0467 11.62 18.2067 12.0133 18.2067C12.84 18.2067 13.5133 17.5333 13.5133 16.7067H14.5133C14.5133 18.0867 13.3933 19.2067 12.0133 19.2067Z" fill="#C0C4CA"/>
</g>
<defs>
<clipPath id="clip0_2_6729">
<rect width="24" height="24" fill="white"/>
</clipPath>
</defs>
</svg>
