<svg width="17" height="17" viewBox="0 0 17 17" fill="none" xmlns="http://www.w3.org/2000/svg">
<g clip-path="url(#clip0_2_6273)">
<path d="M5.4317 14.9005C11.4695 14.9005 14.7719 9.89825 14.7719 5.56033C14.7719 5.41825 14.7719 5.27681 14.7623 5.13601C15.4047 4.67131 15.9593 4.09593 16.4 3.43681C15.801 3.70241 15.1654 3.87651 14.5146 3.95329C15.1999 3.54308 15.7128 2.89781 15.9578 2.13761C15.3134 2.52002 14.6084 2.78949 13.8733 2.93441C13.3784 2.40813 12.7238 2.05964 12.0108 1.94287C11.2979 1.8261 10.5663 1.94755 9.92934 2.28845C9.29237 2.62934 8.78551 3.17066 8.48719 3.82864C8.18887 4.48663 8.11572 5.22459 8.27907 5.92833C6.97395 5.86286 5.6972 5.52368 4.53166 4.93281C3.36613 4.34194 2.33787 3.51258 1.51362 2.49857C1.09384 3.22123 0.965273 4.07672 1.15409 4.89085C1.34291 5.70498 1.83492 6.41654 2.52994 6.88065C2.00751 6.86534 1.49646 6.72441 1.04002 6.46977V6.51137C1.04023 7.26927 1.30259 8.00377 1.78261 8.59028C2.26262 9.1768 2.93073 9.57922 3.67362 9.72929C3.19034 9.86111 2.68327 9.88038 2.19138 9.78561C2.40123 10.4378 2.80964 11.0082 3.35952 11.4169C3.90939 11.8256 4.57324 12.0523 5.25826 12.0653C4.57765 12.6003 3.79823 12.9958 2.96461 13.2293C2.13098 13.4628 1.2595 13.5296 0.400024 13.4259C1.90125 14.3893 3.64797 14.9003 5.4317 14.8979" fill="#1DA1F2"/>
</g>
<defs>
<clipPath id="clip0_2_6273">
<rect width="16" height="16" fill="white" transform="translate(0.400024 0.400024)"/>
</clipPath>
</defs>
</svg>
