<svg width="23" height="17" viewBox="0 0 23 17" fill="none" xmlns="http://www.w3.org/2000/svg">
<g clip-path="url(#clip0_2_6603)">
<rect x="0.400024" y="0.399902" width="22.4" height="16" rx="3" fill="white"/>
<path fill-rule="evenodd" clip-rule="evenodd" d="M0.400024 0.399902H10V7.86657H0.400024V0.399902Z" fill="#1A47B8"/>
<path fill-rule="evenodd" clip-rule="evenodd" d="M10 0.399902V1.46657H22.8V0.399902H10ZM10 2.53324V3.5999H22.8V2.53324H10ZM10 4.66657V5.73324H22.8V4.66657H10ZM10 6.7999V7.86657H22.8V6.7999H10ZM0.400024 8.93324V9.9999H22.8V8.93324H0.400024ZM0.400024 11.0666V12.1332H22.8V11.0666H0.400024ZM0.400024 13.1999V14.2666H22.8V13.1999H0.400024ZM0.400024 15.3332V16.3999H22.8V15.3332H0.400024Z" fill="#F93939"/>
<path fill-rule="evenodd" clip-rule="evenodd" d="M1.46667 1.46655V2.53322H2.53334V1.46655H1.46667ZM3.60001 1.46655V2.53322H4.66667V1.46655H3.60001ZM5.73334 1.46655V2.53322H6.80001V1.46655H5.73334ZM7.86667 1.46655V2.53322H8.93334V1.46655H7.86667ZM6.80001 2.53322V3.59989H7.86667V2.53322H6.80001ZM4.66667 2.53322V3.59989H5.73334V2.53322H4.66667ZM2.53334 2.53322V3.59989H3.60001V2.53322H2.53334ZM1.46667 3.59989V4.66655H2.53334V3.59989H1.46667ZM3.60001 3.59989V4.66655H4.66667V3.59989H3.60001ZM5.73334 3.59989V4.66655H6.80001V3.59989H5.73334ZM7.86667 3.59989V4.66655H8.93334V3.59989H7.86667ZM1.46667 5.73322V6.79989H2.53334V5.73322H1.46667ZM3.60001 5.73322V6.79989H4.66667V5.73322H3.60001ZM5.73334 5.73322V6.79989H6.80001V5.73322H5.73334ZM7.86667 5.73322V6.79989H8.93334V5.73322H7.86667ZM6.80001 4.66655V5.73322H7.86667V4.66655H6.80001ZM4.66667 4.66655V5.73322H5.73334V4.66655H4.66667ZM2.53334 4.66655V5.73322H3.60001V4.66655H2.53334Z" fill="white"/>
</g>
<defs>
<clipPath id="clip0_2_6603">
<rect x="0.400024" y="0.399902" width="22.4" height="16" rx="3" fill="white"/>
</clipPath>
</defs>
</svg>
